<?xml version="1.0" encoding="UTF-8"?>
<!DOCTYPE svg PUBLIC "-//W3C//DTD SVG 1.1//EN" "http://www.w3.org/Graphics/SVG/1.1/DTD/svg11.dtd">
<svg version="1.2" width="144.68mm" height="86.01mm" viewBox="2983 10700 14468 8601" preserveAspectRatio="xMidYMid" fill-rule="evenodd" stroke-width="28.222" stroke-linejoin="round" xmlns="http://www.w3.org/2000/svg" xmlns:ooo="http://xml.openoffice.org/svg/export" xmlns:xlink="http://www.w3.org/1999/xlink" xmlns:presentation="http://sun.com/xmlns/staroffice/presentation" xmlns:smil="http://www.w3.org/2001/SMIL20/" xmlns:anim="urn:oasis:names:tc:opendocument:xmlns:animation:1.0" xml:space="preserve">
 <defs class="EmbeddedBulletChars">
  <g id="bullet-char-template-57356" transform="scale(0.00048828125,-0.00048828125)">
   <path d="M 580,1141 L 1163,571 580,0 -4,571 580,1141 Z"/>
  </g>
  <g id="bullet-char-template-57354" transform="scale(0.00048828125,-0.00048828125)">
   <path d="M 8,1128 L 1137,1128 1137,0 8,0 8,1128 Z"/>
  </g>
  <g id="bullet-char-template-10146" transform="scale(0.00048828125,-0.00048828125)">
   <path d="M 174,0 L 602,739 174,1481 1456,739 174,0 Z M 1358,739 L 309,1346 659,739 1358,739 Z"/>
  </g>
  <g id="bullet-char-template-10132" transform="scale(0.00048828125,-0.00048828125)">
   <path d="M 2015,739 L 1276,0 717,0 1260,543 174,543 174,936 1260,936 717,1481 1274,1481 2015,739 Z"/>
  </g>
  <g id="bullet-char-template-10007" transform="scale(0.00048828125,-0.00048828125)">
   <path d="M 0,-2 C -7,14 -16,27 -25,37 L 356,567 C 262,823 215,952 215,954 215,979 228,992 255,992 264,992 276,990 289,987 310,991 331,999 354,1012 L 381,999 492,748 772,1049 836,1024 860,1049 C 881,1039 901,1025 922,1006 886,937 835,863 770,784 769,783 710,716 594,584 L 774,223 C 774,196 753,168 711,139 L 727,119 C 717,90 699,76 672,76 641,76 570,178 457,381 L 164,-76 C 142,-110 111,-127 72,-127 30,-127 9,-110 8,-76 1,-67 -2,-52 -2,-32 -2,-23 -1,-13 0,-2 Z"/>
  </g>
  <g id="bullet-char-template-10004" transform="scale(0.00048828125,-0.00048828125)">
   <path d="M 285,-33 C 182,-33 111,30 74,156 52,228 41,333 41,471 41,549 55,616 82,672 116,743 169,778 240,778 293,778 328,747 346,684 L 369,508 C 377,444 397,411 428,410 L 1163,1116 C 1174,1127 1196,1133 1229,1133 1271,1133 1292,1118 1292,1087 L 1292,965 C 1292,929 1282,901 1262,881 L 442,47 C 390,-6 338,-33 285,-33 Z"/>
  </g>
  <g id="bullet-char-template-9679" transform="scale(0.00048828125,-0.00048828125)">
   <path d="M 813,0 C 632,0 489,54 383,161 276,268 223,411 223,592 223,773 276,916 383,1023 489,1130 632,1184 813,1184 992,1184 1136,1130 1245,1023 1353,916 1407,772 1407,592 1407,412 1353,268 1245,161 1136,54 992,0 813,0 Z"/>
  </g>
  <g id="bullet-char-template-8226" transform="scale(0.00048828125,-0.00048828125)">
   <path d="M 346,457 C 273,457 209,483 155,535 101,586 74,649 74,723 74,796 101,859 155,911 209,963 273,989 346,989 419,989 480,963 531,910 582,859 608,796 608,723 608,648 583,586 532,535 482,483 420,457 346,457 Z"/>
  </g>
  <g id="bullet-char-template-8211" transform="scale(0.00048828125,-0.00048828125)">
   <path d="M -4,459 L 1135,459 1135,606 -4,606 -4,459 Z"/>
  </g>
  <g id="bullet-char-template-61548" transform="scale(0.00048828125,-0.00048828125)">
   <path d="M 173,740 C 173,903 231,1043 346,1159 462,1274 601,1332 765,1332 928,1332 1067,1274 1183,1159 1299,1043 1357,903 1357,740 1357,577 1299,437 1183,322 1067,206 928,148 765,148 601,148 462,206 346,322 231,437 173,577 173,740 Z"/>
  </g>
 </defs>
 <g class="Page">
  <g class="com.sun.star.drawing.ConnectorShape">
   <g id="id3">
    <rect class="BoundingBox" stroke="none" fill="none" x="15157" y="13509" width="1205" height="1408"/>
    <path fill="none" stroke="rgb(28,28,28)" stroke-width="100" stroke-linejoin="round" d="M 15207,14866 L 16311,13559"/>
   </g>
  </g>
  <g class="com.sun.star.drawing.ConnectorShape">
   <g id="id4">
    <rect class="BoundingBox" stroke="none" fill="none" x="14039" y="13384" width="804" height="1533"/>
    <path fill="none" stroke="rgb(28,28,28)" stroke-width="100" stroke-linejoin="round" d="M 14089,13434 L 14792,14866"/>
   </g>
  </g>
  <g class="com.sun.star.drawing.ConnectorShape">
   <g id="id5">
    <rect class="BoundingBox" stroke="none" fill="none" x="13238" y="15038" width="1519" height="101"/>
    <path fill="none" stroke="rgb(28,28,28)" stroke-width="100" stroke-linejoin="round" d="M 14706,15088 L 13288,15088"/>
   </g>
  </g>
  <g class="com.sun.star.drawing.ConnectorShape">
   <g id="id6">
    <rect class="BoundingBox" stroke="none" fill="none" x="13974" y="15259" width="869" height="1658"/>
    <path fill="none" stroke="rgb(28,28,28)" stroke-width="100" stroke-linejoin="round" d="M 14792,15309 L 14024,16866"/>
   </g>
  </g>
  <g class="com.sun.star.drawing.ConnectorShape">
   <g id="id7">
    <rect class="BoundingBox" stroke="none" fill="none" x="15157" y="15259" width="853" height="1533"/>
    <path fill="none" stroke="rgb(28,28,28)" stroke-width="100" stroke-linejoin="round" d="M 15207,15309 L 15959,16741"/>
   </g>
  </g>
  <g class="com.sun.star.drawing.ConnectorShape">
   <g id="id8">
    <rect class="BoundingBox" stroke="none" fill="none" x="15243" y="15038" width="1621" height="476"/>
    <path fill="none" stroke="rgb(28,28,28)" stroke-width="100" stroke-linejoin="round" d="M 16813,15463 L 15293,15088"/>
   </g>
  </g>
  <g class="com.sun.star.drawing.CustomShape">
   <g id="id9">
    <rect class="BoundingBox" stroke="none" fill="none" x="13537" y="12849" width="690" height="727"/>
    <path fill="none" stroke="rgb(28,28,28)" stroke-width="100" stroke-linejoin="round" d="M 14176,13212 C 14176,13267 14162,13321 14137,13368 14111,13416 14074,13456 14029,13483 13984,13511 13933,13525 13882,13525 13830,13525 13779,13511 13734,13483 13689,13456 13652,13416 13626,13368 13601,13321 13587,13267 13587,13212 13587,13157 13601,13103 13626,13055 13652,13008 13689,12968 13734,12941 13779,12913 13830,12899 13882,12899 13933,12899 13984,12913 14029,12941 14074,12968 14111,13008 14137,13055 14162,13103 14176,13157 14176,13212 Z"/>
   </g>
  </g>
  <g class="com.sun.star.drawing.CustomShape">
   <g id="id10">
    <rect class="BoundingBox" stroke="none" fill="none" x="12649" y="14724" width="691" height="727"/>
    <path fill="none" stroke="rgb(28,28,28)" stroke-width="100" stroke-linejoin="round" d="M 13289,15087 C 13289,15142 13275,15196 13250,15244 13224,15291 13187,15331 13142,15358 13097,15386 13046,15400 12995,15400 12943,15400 12892,15386 12847,15358 12802,15331 12765,15291 12739,15244 12714,15196 12700,15142 12700,15087 12700,15032 12714,14978 12739,14931 12765,14883 12802,14843 12847,14816 12892,14788 12943,14774 12995,14774 13046,14774 13097,14788 13142,14816 13187,14843 13224,14883 13250,14931 13275,14978 13289,15032 13289,15087 Z"/>
   </g>
  </g>
  <g class="com.sun.star.drawing.CustomShape">
   <g id="id11">
    <rect class="BoundingBox" stroke="none" fill="none" x="14655" y="14724" width="689" height="727"/>
    <path fill="none" stroke="rgb(28,28,28)" stroke-width="100" stroke-linejoin="round" d="M 15293,15087 C 15293,15142 15279,15196 15254,15244 15228,15291 15191,15331 15146,15358 15101,15386 15051,15400 14999,15400 14947,15400 14897,15386 14852,15358 14807,15331 14770,15291 14744,15244 14719,15196 14705,15142 14705,15087 14705,15032 14719,14978 14744,14931 14770,14883 14807,14843 14852,14816 14897,14788 14947,14774 14999,14774 15051,14774 15101,14788 15146,14816 15191,14843 15228,14883 15254,14931 15279,14978 15293,15032 15293,15087 Z"/>
   </g>
  </g>
  <g class="com.sun.star.drawing.CustomShape">
   <g id="id12">
    <rect class="BoundingBox" stroke="none" fill="none" x="16762" y="15099" width="689" height="727"/>
    <path fill="none" stroke="rgb(28,28,28)" stroke-width="100" stroke-linejoin="round" d="M 17400,15462 C 17400,15517 17386,15571 17361,15619 17335,15666 17298,15706 17253,15733 17208,15761 17158,15775 17106,15775 17054,15775 17004,15761 16959,15733 16914,15706 16877,15666 16851,15619 16826,15571 16812,15517 16812,15462 16812,15407 16826,15353 16851,15306 16877,15258 16914,15218 16959,15191 17004,15163 17054,15149 17106,15149 17158,15149 17208,15163 17253,15191 17298,15218 17335,15258 17361,15306 17386,15353 17400,15407 17400,15462 Z"/>
   </g>
  </g>
  <g class="com.sun.star.drawing.CustomShape">
   <g id="id13">
    <rect class="BoundingBox" stroke="none" fill="none" x="15822" y="16599" width="689" height="727"/>
    <path fill="none" stroke="rgb(28,28,28)" stroke-width="100" stroke-linejoin="round" d="M 16460,16962 C 16460,17017 16446,17071 16421,17119 16395,17166 16358,17206 16313,17233 16268,17261 16218,17275 16166,17275 16114,17275 16064,17261 16019,17233 15974,17206 15937,17166 15911,17119 15886,17071 15872,17017 15872,16962 15872,16907 15886,16853 15911,16806 15937,16758 15974,16718 16019,16691 16064,16663 16114,16649 16166,16649 16218,16649 16268,16663 16313,16691 16358,16718 16395,16758 16421,16806 16446,16853 16460,16907 16460,16962 Z"/>
   </g>
  </g>
  <g class="com.sun.star.drawing.CustomShape">
   <g id="id14">
    <rect class="BoundingBox" stroke="none" fill="none" x="13472" y="16724" width="689" height="727"/>
    <path fill="none" stroke="rgb(28,28,28)" stroke-width="100" stroke-linejoin="round" d="M 14110,17087 C 14110,17142 14096,17196 14071,17243 14045,17291 14008,17331 13963,17358 13918,17386 13868,17400 13816,17400 13764,17400 13714,17386 13669,17358 13624,17331 13587,17291 13561,17243 13536,17196 13522,17142 13522,17087 13522,17032 13536,16978 13561,16930 13587,16883 13624,16843 13669,16816 13714,16788 13764,16774 13816,16774 13868,16774 13918,16788 13963,16816 14008,16843 14045,16883 14071,16930 14096,16978 14110,17032 14110,17087 Z"/>
   </g>
  </g>
  <g class="com.sun.star.drawing.CustomShape">
   <g id="id15">
    <rect class="BoundingBox" stroke="none" fill="none" x="16175" y="12973" width="690" height="728"/>
    <path fill="none" stroke="rgb(28,28,28)" stroke-width="100" stroke-linejoin="round" d="M 16814,13337 C 16814,13392 16800,13446 16775,13494 16749,13541 16712,13581 16667,13608 16622,13636 16571,13650 16520,13650 16468,13650 16417,13636 16372,13608 16327,13581 16290,13541 16264,13494 16239,13446 16225,13392 16225,13337 16225,13282 16239,13228 16264,13181 16290,13133 16327,13093 16372,13066 16417,13038 16468,13024 16520,13024 16571,13024 16622,13038 16667,13066 16712,13093 16749,13133 16775,13181 16800,13228 16814,13282 16814,13337 Z"/>
   </g>
  </g>
  <g class="Graphic">
   <g id="id16">
    <rect class="BoundingBox" stroke="none" fill="none" x="6601" y="10700" width="2300" height="2300"/>
    <defs>
     <clipPath id="clip_path_1" clipPathUnits="userSpaceOnUse">
      <path d="M 6601,10700 L 8900,10700 8900,12999 6601,12999 6601,10700 Z"/>
     </clipPath>
    </defs>
    <g clip-path="url(#clip_path_1)">
     <path fill="rgb(0,0,0)" stroke="none" d="M 8457,10731 C 8457,10726 8455,10720 8453,10716 8450,10711 8446,10707 8441,10704 8436,10701 8431,10700 8425,10700 L 8246,10700 C 8240,10700 8235,10701 8230,10704 8225,10707 8221,10711 8218,10716 8216,10721 8214,10726 8214,10731 L 8214,10914 7287,10914 7287,10731 C 7287,10726 7285,10720 7283,10716 7280,10711 7276,10707 7271,10704 7266,10701 7261,10700 7255,10700 L 7076,10700 C 7070,10700 7065,10701 7060,10704 7055,10707 7051,10711 7048,10716 7046,10721 7044,10726 7044,10731 L 7044,11058 C 7044,11059 7044,11060 7044,11061 7044,11227 7088,11390 7171,11533 7244,11661 7346,11769 7469,11850 7346,11930 7244,12039 7170,12166 7088,12309 7044,12470 7044,12635 7044,12637 7044,12639 7044,12641 L 7044,12968 C 7044,12973 7046,12979 7048,12983 7051,12988 7055,12992 7060,12995 7065,12998 7070,12999 7076,12999 L 7255,12999 C 7261,12999 7266,12998 7271,12995 7276,12992 7280,12988 7283,12983 7285,12979 7287,12973 7287,12968 L 7287,12785 8214,12785 8214,12968 C 8214,12973 8216,12979 8218,12983 8221,12988 8225,12992 8230,12995 8235,12998 8240,12999 8246,12999 L 8425,12999 C 8431,12999 8436,12998 8441,12995 8446,12992 8450,12988 8453,12983 8455,12979 8457,12973 8457,12968 L 8457,12641 C 8457,12640 8457,12639 8457,12638 8457,12472 8413,12309 8330,12166 8257,12038 8155,11930 8032,11849 8155,11769 8257,11660 8331,11533 8413,11390 8457,11228 8457,11064 8457,11062 8457,11060 8457,11058 L 8457,10731 Z M 7639,11669 C 7557,11623 7487,11560 7430,11486 L 8072,11486 C 8016,11560 7945,11622 7864,11669 7828,11690 7790,11707 7751,11722 7712,11707 7674,11690 7639,11669 Z M 7387,11423 L 7386,11420 C 7384,11418 7383,11415 7381,11412 7368,11390 7356,11366 7346,11343 L 7346,11342 8155,11342 C 8145,11366 8133,11389 8120,11412 8118,11416 8116,11419 8114,11423 L 7387,11423 Z M 8180,11279 L 7322,11279 C 7305,11228 7294,11174 7290,11121 L 8212,11121 C 8207,11174 8196,11228 8180,11279 L 8180,11279 Z M 8214,10977 L 8214,11058 7287,11058 7287,10977 8214,10977 Z M 7224,12936 L 7107,12936 7107,12641 C 7107,12639 7107,12637 7107,12635 7107,12482 7148,12330 7225,12197 7298,12070 7403,11963 7529,11886 7571,11910 7616,11930 7661,11947 7642,11956 7622,11966 7604,11977 7488,12043 7393,12139 7326,12255 7264,12362 7229,12484 7225,12608 L 7225,12609 C 7224,12619 7224,12630 7224,12640 L 7224,12936 7224,12936 Z M 7290,12578 C 7294,12524 7305,12471 7321,12420 L 8179,12420 C 8196,12471 8207,12524 8211,12578 L 7290,12578 Z M 7346,12357 C 7356,12333 7368,12309 7381,12286 7383,12283 7385,12279 7387,12276 L 8114,12276 8115,12279 C 8122,12291 8129,12303 8136,12316 L 8136,12316 C 8142,12328 8148,12340 8153,12353 L 8155,12357 7346,12357 Z M 7429,12213 C 7485,12139 7556,12077 7637,12030 7673,12009 7711,11992 7751,11977 7789,11992 7827,12009 7862,12030 7943,12076 8014,12139 8071,12213 L 7429,12213 Z M 7287,12722 L 7287,12641 8214,12641 8214,12722 7287,12722 Z M 8394,12641 L 8394,12936 8277,12936 8277,12641 8277,12640 C 8277,12551 8262,12462 8232,12379 8232,12378 8232,12378 8231,12378 8231,12377 8231,12376 8230,12375 8221,12350 8211,12326 8200,12303 8199,12301 8198,12300 8198,12299 8190,12284 8183,12270 8174,12255 8107,12139 8010,12042 7894,11975 7843,11946 7789,11922 7733,11905 7669,11886 7607,11859 7548,11825 7414,11748 7303,11636 7225,11502 7148,11368 7107,11216 7107,11061 7107,11060 7107,11059 7107,11058 L 7107,10763 7224,10763 7224,11058 C 7224,11069 7224,11080 7225,11090 7229,11215 7264,11336 7327,11444 7394,11560 7490,11657 7607,11724 7658,11753 7712,11777 7768,11794 7832,11813 7894,11840 7953,11874 8087,11951 8198,12063 8276,12197 8353,12331 8394,12483 8394,12638 8394,12639 8394,12640 8394,12641 L 8394,12641 Z M 7840,11752 C 7859,11743 7878,11733 7897,11722 8013,11656 8109,11560 8175,11444 8242,11328 8277,11197 8277,11064 8277,11062 8277,11060 8277,11058 L 8277,10763 8394,10763 8394,11058 C 8394,11060 8394,11062 8394,11063 8394,11217 8353,11369 8276,11502 8203,11629 8098,11736 7972,11813 7930,11789 7885,11769 7840,11752 Z"/>
    </g>
   </g>
  </g>
  <g class="Graphic">
   <g id="id17">
    <rect class="BoundingBox" stroke="none" fill="none" x="2983" y="12800" width="2518" height="2518"/>
    <path fill="rgb(0,0,0)" stroke="none" d="M 5387,13850 C 5386,13848 5385,13846 5384,13845 5371,13822 5351,13802 5328,13789 5305,13776 5279,13769 5252,13769 5226,13769 5199,13776 5176,13789 5165,13795 5155,13803 5146,13812 L 4665,13745 C 4659,13718 4649,13692 4635,13668 4628,13656 4620,13645 4611,13634 L 4832,13264 C 4838,13264 4844,13263 4850,13261 4864,13258 4877,13252 4890,13245 4913,13232 4932,13213 4945,13189 4959,13166 4966,13140 4966,13113 4966,13087 4959,13061 4945,13037 4932,13014 4913,12995 4890,12982 4867,12968 4840,12961 4814,12961 4787,12961 4761,12968 4738,12982 4715,12995 4695,13014 4682,13037 4669,13061 4662,13087 4662,13113 4662,13126 4663,13138 4666,13150 4668,13156 4670,13162 4672,13169 L 4452,13538 C 4435,13535 4418,13533 4401,13533 4354,13533 4308,13546 4268,13569 4256,13576 4244,13584 4234,13592 L 3613,13217 C 3617,13200 3618,13182 3618,13165 3618,13117 3606,13071 3582,13030 3558,12988 3524,12954 3483,12930 3442,12907 3395,12894 3348,12894 3300,12894 3254,12907 3213,12930 3171,12954 3137,12988 3113,13030 3090,13071 3077,13117 3077,13165 3077,13212 3090,13259 3113,13300 3137,13341 3171,13375 3213,13399 3254,13423 3300,13435 3348,13435 3395,13435 3442,13423 3483,13399 3495,13392 3506,13385 3517,13376 L 4137,13752 C 4134,13769 4132,13786 4132,13803 4132,13813 4132,13822 4133,13832 L 3594,14098 C 3579,14084 3562,14072 3544,14061 3503,14037 3457,14025 3409,14025 3362,14025 3316,14037 3275,14061 3234,14085 3200,14119 3176,14160 3152,14201 3140,14247 3140,14294 3140,14342 3152,14388 3176,14429 3200,14470 3234,14504 3275,14528 3316,14551 3362,14564 3409,14564 3457,14564 3503,14551 3544,14528 3585,14504 3619,14470 3642,14429 3666,14388 3679,14342 3679,14294 3679,14285 3678,14275 3677,14265 L 4196,14009 3858,14691 C 3842,14694 3826,14700 3812,14708 3788,14722 3769,14741 3756,14764 3742,14787 3735,14814 3735,14840 3735,14867 3742,14893 3756,14917 3769,14940 3788,14959 3812,14972 3835,14986 3861,14993 3888,14993 3915,14993 3941,14986 3964,14972 3987,14959 4007,14940 4020,14917 4033,14893 4040,14867 4040,14840 4040,14817 4035,14794 4025,14774 L 4373,14071 C 4383,14072 4392,14073 4402,14073 L 4647,14740 C 4620,14761 4597,14787 4580,14817 4557,14858 4544,14904 4544,14952 4544,14999 4557,15046 4580,15087 4604,15128 4638,15162 4679,15185 4720,15209 4767,15222 4814,15222 4861,15222 4908,15209 4949,15185 4990,15162 5024,15128 5048,15087 5071,15046 5084,14999 5084,14952 5084,14904 5071,14858 5048,14817 5024,14776 4990,14742 4949,14718 4911,14696 4869,14684 4825,14682 L 4577,14008 C 4600,13988 4620,13964 4636,13937 4637,13935 4638,13933 4640,13930 L 5121,13997 C 5134,14020 5153,14038 5176,14052 5199,14065 5225,14072 5252,14072 5279,14072 5305,14065 5328,14052 5351,14038 5370,14019 5383,13996 5397,13973 5404,13947 5404,13920 5404,13895 5398,13871 5387,13850 L 5387,13850 Z M 4772,13041 C 4785,13034 4799,13030 4814,13030 4828,13030 4843,13034 4855,13041 4868,13049 4879,13059 4886,13072 4893,13084 4897,13099 4897,13113 4897,13128 4893,13142 4886,13155 4879,13168 4868,13178 4855,13186 4849,13190 4841,13193 4834,13194 4827,13196 4820,13197 4814,13197 4799,13197 4785,13193 4772,13186 4759,13178 4749,13168 4742,13155 4734,13142 4730,13128 4730,13113 4730,13099 4734,13084 4742,13072 4742,13071 4742,13071 4743,13070 L 4742,13070 C 4750,13058 4760,13048 4772,13041 Z M 4716,13229 C 4722,13235 4728,13239 4735,13243 4736,13244 4736,13244 4737,13244 4744,13248 4751,13252 4758,13255 L 4560,13585 C 4553,13579 4544,13574 4536,13569 4530,13566 4524,13563 4518,13560 L 4716,13229 Z M 4459,13610 L 4460,13610 C 4475,13615 4489,13621 4502,13629 4517,13638 4531,13648 4544,13661 4545,13662 4545,13662 4546,13663 4558,13675 4568,13688 4576,13703 4594,13733 4603,13768 4603,13803 4603,13830 4598,13856 4587,13881 L 4587,13881 C 4584,13889 4580,13897 4576,13904 4558,13935 4533,13960 4502,13978 4472,13995 4437,14004 4402,14004 4366,14004 4332,13995 4301,13978 4271,13960 4245,13935 4227,13904 4210,13873 4201,13839 4201,13803 4201,13768 4210,13733 4227,13703 4237,13687 4248,13673 4261,13660 4261,13660 4261,13660 4261,13659 4273,13647 4287,13637 4302,13629 4332,13611 4366,13602 4402,13602 4421,13602 4440,13605 4459,13610 L 4459,13610 Z M 3174,13065 C 3192,13034 3217,13009 3248,12991 3279,12974 3313,12964 3349,12964 3384,12964 3419,12974 3449,12991 3480,13009 3505,13034 3523,13065 3540,13096 3550,13130 3550,13166 3550,13201 3540,13236 3523,13266 3505,13297 3480,13322 3449,13340 3419,13357 3384,13367 3349,13367 3313,13367 3279,13357 3248,13340 3217,13322 3192,13297 3174,13266 3157,13235 3147,13201 3147,13166 3147,13130 3157,13096 3174,13065 Z M 3565,13325 C 3572,13317 3577,13309 3582,13300 3585,13294 3588,13289 3591,13284 L 4185,13643 C 4179,13651 4173,13660 4168,13669 4165,13674 4162,13680 4159,13685 L 3565,13325 Z M 3409,14495 C 3409,14495 3409,14495 3409,14495 3373,14495 3339,14486 3308,14468 3278,14451 3252,14425 3235,14395 3217,14364 3208,14329 3208,14294 3208,14259 3217,14224 3235,14193 3252,14163 3278,14137 3308,14120 3339,14102 3373,14093 3409,14093 3444,14093 3479,14102 3509,14120 3540,14137 3565,14163 3583,14193 3601,14224 3610,14259 3610,14294 3610,14329 3601,14364 3583,14394 3565,14425 3540,14451 3509,14468 3479,14486 3444,14495 3409,14495 L 3409,14495 Z M 3638,14153 L 4150,13900 C 4155,13913 4161,13925 4168,13937 4169,13939 4171,13942 4172,13944 L 3660,14197 C 3655,14184 3649,14172 3642,14160 3641,14157 3640,14155 3638,14153 Z M 3847,14912 C 3834,14905 3823,14894 3816,14881 3809,14869 3805,14854 3805,14840 3805,14825 3809,14811 3816,14798 3823,14785 3834,14775 3847,14768 3859,14760 3874,14756 3888,14756 3903,14756 3917,14760 3930,14768 3943,14775 3953,14785 3960,14798 3968,14811 3972,14825 3972,14840 3972,14854 3968,14869 3960,14881 3953,14894 3943,14905 3930,14912 3917,14919 3903,14923 3888,14923 3874,14923 3859,14919 3847,14912 Z M 3977,14716 C 3973,14713 3968,14710 3964,14708 3954,14702 3944,14698 3933,14694 L 4261,14033 C 4263,14034 4265,14035 4268,14037 4279,14044 4292,14050 4305,14055 L 3977,14716 Z M 4988,15052 C 4970,15083 4945,15108 4914,15126 4884,15143 4849,15153 4814,15153 4778,15153 4744,15143 4713,15126 4683,15108 4657,15083 4640,15052 4622,15021 4613,14987 4613,14951 4613,14916 4622,14881 4640,14851 4657,14820 4683,14795 4713,14777 4744,14760 4778,14750 4814,14750 4849,14750 4884,14760 4914,14777 4945,14795 4970,14820 4988,14851 5006,14882 5015,14916 5015,14951 5015,14987 5006,15021 4988,15052 Z M 4754,14688 C 4738,14692 4722,14697 4707,14704 L 4472,14063 C 4487,14059 4503,14054 4518,14046 L 4754,14688 Z M 5107,13876 L 5107,13876 C 5103,13891 5100,13906 5100,13921 5100,13922 5100,13923 5100,13925 L 4664,13864 C 4668,13848 4670,13832 4671,13815 L 5107,13876 Z M 5332,13945 C 5330,13951 5328,13957 5324,13962 5317,13975 5307,13985 5294,13993 5281,14000 5267,14004 5252,14004 5238,14004 5223,14000 5211,13993 5198,13985 5188,13975 5180,13962 5173,13950 5169,13935 5169,13921 5169,13906 5173,13892 5180,13879 5188,13866 5198,13856 5211,13849 5223,13841 5238,13838 5252,13838 5267,13838 5281,13841 5294,13849 5307,13856 5317,13866 5324,13879 5325,13880 5325,13881 5326,13882 5332,13894 5336,13907 5336,13921 5336,13929 5334,13937 5332,13945 Z"/>
    <path fill="rgb(0,0,0)" stroke="none" d="M 4854,15097 C 4854,15097 4854,15097 4854,15097 4858,15097 4862,15096 4866,15095 4874,15091 4882,15088 4890,15083 4913,15070 4932,15051 4945,15027 4959,15004 4966,14978 4966,14951 4966,14945 4964,14940 4961,14934 4958,14929 4954,14925 4949,14922 4943,14919 4938,14917 4932,14917 4926,14917 4920,14919 4914,14922 4909,14925 4905,14929 4902,14934 4899,14940 4897,14945 4897,14951 4897,14966 4893,14980 4886,14993 4879,15006 4868,15016 4855,15024 4851,15026 4847,15028 4842,15030 4840,15031 4838,15032 4837,15033 4831,15036 4827,15040 4824,15045 4821,15050 4819,15056 4819,15062 4819,15068 4821,15074 4824,15079 4827,15085 4831,15089 4837,15092 4842,15095 4848,15097 4854,15097 4854,15097 4854,15097 4854,15097 L 4854,15097 Z"/>
   </g>
  </g>
  <g class="Graphic">
   <g id="id18">
    <rect class="BoundingBox" stroke="none" fill="none" x="6762" y="15462" width="1939" height="1939"/>
    <path fill="rgb(0,0,0)" stroke="none" d="M 7285,16574 C 7285,16475 7318,16383 7373,16309 7315,16257 7239,16225 7155,16225 6975,16225 6829,16371 6829,16551 6829,16551 6906,17237 7155,17237 7252,17237 7322,17134 7373,17009 7314,16815 7290,16622 7285,16581 L 7285,16574 7285,16574 Z"/>
    <path fill="rgb(0,0,0)" stroke="none" d="M 7155,16201 C 7264,16201 7359,16141 7408,16051 7359,15985 7330,15903 7330,15815 7330,15775 7337,15736 7348,15699 7297,15653 7229,15625 7155,15625 6996,15625 6867,15754 6867,15913 6867,16072 6996,16201 7155,16201 L 7155,16201 Z"/>
    <path fill="rgb(0,0,0)" stroke="none" d="M 8307,16225 C 8223,16225 8147,16257 8089,16309 8144,16383 8177,16475 8177,16574 L 8177,16581 C 8172,16622 8148,16815 8089,17009 8140,17134 8210,17237 8307,17237 8556,17237 8633,16551 8633,16551 8633,16371 8487,16225 8307,16225 L 8307,16225 Z"/>
    <path fill="rgb(0,0,0)" stroke="none" d="M 8054,16051 C 8103,16141 8198,16201 8307,16201 8466,16201 8595,16072 8595,15913 8595,15754 8466,15625 8307,15625 8233,15625 8165,15653 8114,15699 8125,15736 8132,15775 8132,15815 8132,15903 8103,15985 8054,16051 L 8054,16051 Z"/>
    <path fill="rgb(0,0,0)" stroke="none" d="M 7731,16186 C 7516,16186 7343,16360 7343,16574 7343,16574 7434,17390 7731,17390 8028,17390 8119,16574 8119,16574 8119,16360 7946,16186 7731,16186 L 7731,16186 Z"/>
    <path fill="rgb(0,0,0)" stroke="none" d="M 8074,15815 C 8074,15875 8058,15934 8028,15986 7998,16038 7955,16082 7902,16112 7850,16142 7791,16158 7731,16158 7671,16158 7612,16142 7560,16112 7507,16082 7464,16038 7434,15986 7404,15934 7388,15875 7388,15815 7388,15754 7404,15695 7434,15643 7464,15591 7507,15548 7560,15518 7612,15488 7671,15472 7731,15472 7791,15472 7850,15488 7902,15518 7955,15548 7998,15591 8028,15643 8058,15695 8074,15754 8074,15815 L 8074,15815 Z"/>
   </g>
  </g>
  <g class="Graphic">
   <g id="id19">
    <rect class="BoundingBox" stroke="none" fill="none" x="3700" y="16800" width="2501" height="2501"/>
    <defs>
     <clipPath id="clip_path_2" clipPathUnits="userSpaceOnUse">
      <path d="M 3700,16800 L 6200,16800 6200,19300 3700,19300 3700,16800 Z"/>
     </clipPath>
    </defs>
    <g clip-path="url(#clip_path_2)">
     <path fill="rgb(0,0,0)" stroke="none" d="M 4441,17145 L 4308,17145 C 4296,17145 4282,17159 4276,17176 L 3701,18924 C 3696,18941 3710,18955 3734,18955 L 3995,18955 C 4017,18956 4037,18944 4046,18924 L 4456,17176 C 4460,17159 4453,17145 4441,17145 L 4441,17145 Z"/>
     <path fill="rgb(0,0,0)" stroke="none" d="M 4618,17145 C 4607,17145 4596,17159 4593,17176 L 4304,18923 C 4301,18941 4316,18955 4337,18955 L 4786,18954 C 4780,18943 4777,18931 4778,18919 L 4783,18644 C 4786,18600 4823,18566 4867,18568 L 4950,18567 5033,18568 C 5077,18566 5114,18600 5117,18644 L 5122,18919 C 5123,18931 5120,18943 5114,18954 L 5563,18955 C 5584,18955 5599,18941 5596,18923 L 5307,17176 C 5304,17159 5293,17145 5282,17145 L 5082,17145 5088,17415 C 5089,17435 5082,17455 5068,17469 5055,17482 5038,17489 5020,17490 L 4880,17490 C 4862,17489 4845,17482 4832,17469 4818,17455 4811,17435 4812,17415 L 4818,17145 4618,17145 Z M 5111,18364 C 5111,18382 5104,18400 5091,18414 5075,18429 5053,18438 5031,18438 L 4869,18438 C 4847,18438 4825,18429 4809,18414 4796,18400 4789,18382 4789,18364 L 4795,18122 C 4797,18081 4831,18049 4872,18050 L 5028,18050 C 5069,18049 5103,18081 5105,18122 L 5111,18364 Z M 4878,17576 L 5022,17576 C 5060,17575 5092,17605 5094,17644 L 5100,17850 C 5100,17868 5093,17886 5081,17898 5066,17913 5046,17921 5025,17921 L 4875,17921 C 4854,17921 4834,17913 4819,17898 4807,17886 4800,17868 4800,17850 L 4806,17644 C 4808,17605 4840,17575 4878,17576 L 4878,17576 Z"/>
     <path fill="rgb(0,0,0)" stroke="none" d="M 6166,18955 C 6190,18955 6204,18941 6199,18924 L 5624,17176 C 5618,17159 5604,17145 5592,17145 L 5459,17145 C 5447,17145 5440,17159 5444,17176 L 5854,18924 C 5863,18944 5883,18956 5905,18955 L 6166,18955 Z"/>
    </g>
   </g>
  </g>
  <g class="com.sun.star.drawing.LineShape">
   <g id="id20">
    <rect class="BoundingBox" stroke="none" fill="none" x="9250" y="14925" width="2651" height="351"/>
    <path fill="none" stroke="rgb(28,28,28)" stroke-width="100" stroke-linejoin="round" d="M 9300,15100 L 11398,15100"/>
    <path fill="rgb(28,28,28)" stroke="none" d="M 11900,15100 L 11375,14925 11375,15275 11900,15100 Z"/>
   </g>
  </g>
 </g>
</svg>