<?xml version="1.0" encoding="UTF-8"?>
<!DOCTYPE svg PUBLIC "-//W3C//DTD SVG 1.1//EN" "http://www.w3.org/Graphics/SVG/1.1/DTD/svg11.dtd">
<svg version="1.2" width="103.51mm" height="84.89mm" viewBox="5700 1600 10351 8489" preserveAspectRatio="xMidYMid" fill-rule="evenodd" stroke-width="28.222" stroke-linejoin="round" xmlns="http://www.w3.org/2000/svg" xmlns:ooo="http://xml.openoffice.org/svg/export" xmlns:xlink="http://www.w3.org/1999/xlink" xmlns:presentation="http://sun.com/xmlns/staroffice/presentation" xmlns:smil="http://www.w3.org/2001/SMIL20/" xmlns:anim="urn:oasis:names:tc:opendocument:xmlns:animation:1.0" xml:space="preserve">
 <defs class="EmbeddedBulletChars">
  <g id="bullet-char-template-57356" transform="scale(0.00048828125,-0.00048828125)">
   <path d="M 580,1141 L 1163,571 580,0 -4,571 580,1141 Z"/>
  </g>
  <g id="bullet-char-template-57354" transform="scale(0.00048828125,-0.00048828125)">
   <path d="M 8,1128 L 1137,1128 1137,0 8,0 8,1128 Z"/>
  </g>
  <g id="bullet-char-template-10146" transform="scale(0.00048828125,-0.00048828125)">
   <path d="M 174,0 L 602,739 174,1481 1456,739 174,0 Z M 1358,739 L 309,1346 659,739 1358,739 Z"/>
  </g>
  <g id="bullet-char-template-10132" transform="scale(0.00048828125,-0.00048828125)">
   <path d="M 2015,739 L 1276,0 717,0 1260,543 174,543 174,936 1260,936 717,1481 1274,1481 2015,739 Z"/>
  </g>
  <g id="bullet-char-template-10007" transform="scale(0.00048828125,-0.00048828125)">
   <path d="M 0,-2 C -7,14 -16,27 -25,37 L 356,567 C 262,823 215,952 215,954 215,979 228,992 255,992 264,992 276,990 289,987 310,991 331,999 354,1012 L 381,999 492,748 772,1049 836,1024 860,1049 C 881,1039 901,1025 922,1006 886,937 835,863 770,784 769,783 710,716 594,584 L 774,223 C 774,196 753,168 711,139 L 727,119 C 717,90 699,76 672,76 641,76 570,178 457,381 L 164,-76 C 142,-110 111,-127 72,-127 30,-127 9,-110 8,-76 1,-67 -2,-52 -2,-32 -2,-23 -1,-13 0,-2 Z"/>
  </g>
  <g id="bullet-char-template-10004" transform="scale(0.00048828125,-0.00048828125)">
   <path d="M 285,-33 C 182,-33 111,30 74,156 52,228 41,333 41,471 41,549 55,616 82,672 116,743 169,778 240,778 293,778 328,747 346,684 L 369,508 C 377,444 397,411 428,410 L 1163,1116 C 1174,1127 1196,1133 1229,1133 1271,1133 1292,1118 1292,1087 L 1292,965 C 1292,929 1282,901 1262,881 L 442,47 C 390,-6 338,-33 285,-33 Z"/>
  </g>
  <g id="bullet-char-template-9679" transform="scale(0.00048828125,-0.00048828125)">
   <path d="M 813,0 C 632,0 489,54 383,161 276,268 223,411 223,592 223,773 276,916 383,1023 489,1130 632,1184 813,1184 992,1184 1136,1130 1245,1023 1353,916 1407,772 1407,592 1407,412 1353,268 1245,161 1136,54 992,0 813,0 Z"/>
  </g>
  <g id="bullet-char-template-8226" transform="scale(0.00048828125,-0.00048828125)">
   <path d="M 346,457 C 273,457 209,483 155,535 101,586 74,649 74,723 74,796 101,859 155,911 209,963 273,989 346,989 419,989 480,963 531,910 582,859 608,796 608,723 608,648 583,586 532,535 482,483 420,457 346,457 Z"/>
  </g>
  <g id="bullet-char-template-8211" transform="scale(0.00048828125,-0.00048828125)">
   <path d="M -4,459 L 1135,459 1135,606 -4,606 -4,459 Z"/>
  </g>
  <g id="bullet-char-template-61548" transform="scale(0.00048828125,-0.00048828125)">
   <path d="M 173,740 C 173,903 231,1043 346,1159 462,1274 601,1332 765,1332 928,1332 1067,1274 1183,1159 1299,1043 1357,903 1357,740 1357,577 1299,437 1183,322 1067,206 928,148 765,148 601,148 462,206 346,322 231,437 173,577 173,740 Z"/>
  </g>
 </defs>
 <g class="Page">
  <g class="Group">
   <g class="com.sun.star.drawing.CustomShape">
    <g id="id3">
     <rect class="BoundingBox" stroke="none" fill="none" x="15150" y="3750" width="901" height="901"/>
     <path fill="rgb(238,238,238)" stroke="none" d="M 15600,4600 L 15200,4600 15200,3800 16000,3800 16000,4600 15600,4600 Z"/>
     <path fill="none" stroke="rgb(28,28,28)" stroke-width="100" stroke-linejoin="round" d="M 15600,4600 L 15200,4600 15200,3800 16000,3800 16000,4600 15600,4600 Z"/>
    </g>
   </g>
   <g class="com.sun.star.drawing.CustomShape">
    <g id="id4">
     <rect class="BoundingBox" stroke="none" fill="none" x="15150" y="4550" width="901" height="901"/>
     <path fill="rgb(51,51,51)" stroke="none" d="M 15600,5400 L 15200,5400 15200,4600 16000,4600 16000,5400 15600,5400 Z"/>
     <path fill="none" stroke="rgb(28,28,28)" stroke-width="100" stroke-linejoin="round" d="M 15600,5400 L 15200,5400 15200,4600 16000,4600 16000,5400 15600,5400 Z"/>
    </g>
   </g>
   <g class="com.sun.star.drawing.CustomShape">
    <g id="id5">
     <rect class="BoundingBox" stroke="none" fill="none" x="15150" y="5350" width="901" height="901"/>
     <path fill="rgb(178,178,178)" stroke="none" d="M 15600,6200 L 15200,6200 15200,5400 16000,5400 16000,6200 15600,6200 Z"/>
     <path fill="none" stroke="rgb(28,28,28)" stroke-width="100" stroke-linejoin="round" d="M 15600,6200 L 15200,6200 15200,5400 16000,5400 16000,6200 15600,6200 Z"/>
    </g>
   </g>
   <g class="com.sun.star.drawing.CustomShape">
    <g id="id6">
     <rect class="BoundingBox" stroke="none" fill="none" x="15150" y="6150" width="901" height="901"/>
     <path fill="rgb(204,204,204)" stroke="none" d="M 15600,7000 L 15200,7000 15200,6200 16000,6200 16000,7000 15600,7000 Z"/>
     <path fill="none" stroke="rgb(28,28,28)" stroke-width="100" stroke-linejoin="round" d="M 15600,7000 L 15200,7000 15200,6200 16000,6200 16000,7000 15600,7000 Z"/>
    </g>
   </g>
  </g>
  <g class="Graphic">
   <g id="id7">
    <rect class="BoundingBox" stroke="none" fill="none" x="5700" y="1600" width="2001" height="2001"/>
    <path fill="rgb(0,0,0)" stroke="none" d="M 6806,2319 C 6806,2209 6716,2120 6606,2120 6496,2120 6406,2209 6406,2319 6406,2429 6496,2519 6606,2519 6716,2519 6806,2429 6806,2319 Z M 6606,2237 C 6651,2237 6688,2274 6688,2319 6688,2365 6651,2402 6606,2402 6561,2402 6524,2365 6524,2319 6524,2274 6561,2237 6606,2237 Z"/>
    <path fill="rgb(0,0,0)" stroke="none" d="M 7626,1746 L 5774,1746 C 5734,1746 5701,1778 5701,1819 L 5701,3386 C 5701,3426 5734,3459 5774,3459 L 7626,3459 C 7666,3459 7699,3426 7699,3386 L 7699,1819 C 7699,1778 7666,1746 7626,1746 L 7626,1746 Z M 7582,1863 L 7582,2789 7213,2421 C 7190,2397 7150,2397 7126,2421 L 6606,2941 6274,2609 C 6262,2597 6246,2591 6230,2591 6214,2591 6198,2597 6186,2609 L 5818,2977 5818,1863 7582,1863 Z M 5818,3342 L 5818,3142 6230,2731 6562,3063 C 6574,3075 6590,3081 6606,3081 6622,3081 6638,3075 6650,3063 L 7170,2543 7582,2954 7582,3342 5818,3342 Z"/>
   </g>
  </g>
  <g class="Graphic">
   <g id="id8">
    <rect class="BoundingBox" stroke="none" fill="none" x="8600" y="3800" width="2201" height="2201"/>
    <defs>
     <clipPath id="clip_path_1" clipPathUnits="userSpaceOnUse">
      <path d="M 8600,3800 L 10800,3800 10800,6000 8600,6000 8600,3800 Z"/>
     </clipPath>
    </defs>
    <g clip-path="url(#clip_path_1)">
     <path fill="rgb(0,0,0)" stroke="none" d="M 8600,4774 L 8600,4986 C 8600,5009 8619,5028 8642,5028 8666,5028 8685,5009 8685,4986 L 8685,4774 C 8685,4751 8666,4732 8642,4732 8619,4732 8600,4751 8600,4774 Z"/>
     <path fill="rgb(0,0,0)" stroke="none" d="M 8854,4559 C 8831,4559 8812,4578 8812,4601 L 8812,5187 C 8812,5210 8831,5229 8854,5229 8877,5229 8896,5210 8896,5187 L 8896,4601 C 8896,4578 8877,4559 8854,4559 L 8854,4559 Z"/>
     <path fill="rgb(0,0,0)" stroke="none" d="M 9065,4267 C 9042,4267 9023,4286 9023,4309 L 9023,5494 C 9023,5517 9042,5536 9065,5536 9089,5536 9108,5517 9108,5494 L 9108,4309 C 9108,4286 9089,4267 9065,4267 L 9065,4267 Z"/>
     <path fill="rgb(0,0,0)" stroke="none" d="M 9277,4478 C 9254,4478 9235,4497 9235,4520 L 9235,5240 C 9235,5263 9254,5282 9277,5282 9300,5282 9319,5263 9319,5240 L 9319,4520 C 9319,4497 9300,4478 9277,4478 L 9277,4478 Z"/>
     <path fill="rgb(0,0,0)" stroke="none" d="M 9916,4376 C 9892,4376 9873,4395 9873,4418 L 9873,5370 C 9873,5393 9892,5412 9916,5412 9939,5412 9958,5393 9958,5370 L 9958,4418 C 9958,4395 9939,4376 9916,4376 L 9916,4376 Z"/>
     <path fill="rgb(0,0,0)" stroke="none" d="M 10335,4436 C 10311,4436 10292,4455 10292,4478 L 10292,5324 C 10292,5348 10311,5367 10335,5367 10358,5367 10377,5348 10377,5324 L 10377,4478 C 10377,4455 10358,4436 10335,4436 L 10335,4436 Z"/>
     <path fill="rgb(0,0,0)" stroke="none" d="M 10546,4647 C 10523,4647 10504,4666 10504,4690 L 10504,5113 C 10504,5136 10523,5155 10546,5155 10570,5155 10588,5136 10588,5113 L 10588,4690 C 10588,4666 10570,4647 10546,4647 L 10546,4647 Z"/>
     <path fill="rgb(0,0,0)" stroke="none" d="M 10081,4140 L 10081,5663 C 10081,5686 10100,5705 10123,5705 10146,5705 10165,5686 10165,5663 L 10165,4140 C 10165,4116 10146,4097 10123,4097 10100,4097 10081,4116 10081,4140 Z"/>
     <path fill="rgb(0,0,0)" stroke="none" d="M 9488,4774 C 9465,4774 9446,4793 9446,4817 L 9446,4986 C 9446,5009 9465,5028 9488,5028 9512,5028 9531,5009 9531,4986 L 9531,4817 C 9531,4793 9512,4774 9488,4774 L 9488,4774 Z"/>
     <path fill="rgb(0,0,0)" stroke="none" d="M 10758,4760 C 10734,4760 10715,4779 10715,4802 L 10715,4986 C 10715,5009 10734,5028 10758,5028 10781,5028 10800,5009 10800,4986 L 10800,4802 C 10800,4779 10781,4760 10758,4760 L 10758,4760 Z"/>
     <path fill="rgb(0,0,0)" stroke="none" d="M 9696,4679 C 9673,4679 9654,4698 9654,4722 L 9654,5066 C 9654,5090 9673,5108 9696,5108 9719,5108 9738,5090 9738,5066 L 9738,4722 C 9738,4698 9719,4679 9696,4679 L 9696,4679 Z"/>
    </g>
   </g>
  </g>
  <g class="Graphic">
   <g id="id9">
    <rect class="BoundingBox" stroke="none" fill="none" x="8512" y="7800" width="2289" height="2289"/>
    <path fill="rgb(0,0,0)" stroke="none" d="M 10758,8909 L 10565,8909 C 10645,8727 10637,8579 10606,8480 10554,8302 10379,8109 10118,8109 10049,8109 9979,8122 9908,8148 9784,8193 9702,8243 9665,8269 9628,8243 9548,8193 9422,8148 9350,8122 9278,8109 9211,8109 8951,8109 8775,8302 8723,8480 8693,8586 8682,8747 8784,8948 L 8549,8948 C 8530,8948 8515,8964 8515,8983 8515,9003 8530,9018 8549,9018 L 8825,9018 C 8836,9037 8849,9057 8864,9076 9090,9402 9580,9755 9669,9777 L 9669,9779 C 9669,9779 9671,9779 9673,9777 9676,9777 9678,9777 9680,9777 L 9680,9775 C 9756,9738 10227,9434 10474,9074 10498,9042 10517,9009 10535,8977 L 10763,8977 C 10782,8977 10797,8961 10797,8942 10797,8922 10778,8909 10758,8909 L 10758,8909 Z M 10411,9037 C 10181,9374 9758,9645 9667,9703 9574,9645 9153,9371 8920,9037 8916,9031 8912,9024 8907,9018 L 9226,9018 C 9239,9018 9252,9011 9259,8998 L 9404,8712 9632,9295 C 9636,9309 9652,9317 9665,9317 9665,9317 9665,9317 9667,9317 9682,9317 9695,9306 9699,9291 L 9899,8608 10005,8953 C 10010,8966 10021,8974 10034,8977 10047,8979 10060,8972 10068,8961 L 10153,8838 10224,8959 C 10231,8970 10242,8977 10255,8977 L 10450,8977 C 10437,8998 10424,9018 10411,9037 L 10411,9037 Z M 10489,8909 L 10277,8909 10188,8757 C 10181,8747 10170,8740 10157,8740 10144,8740 10133,8744 10127,8755 L 10053,8864 9934,8475 C 9929,8460 9914,8451 9899,8449 9884,8449 9869,8460 9864,8475 L 9663,9172 9443,8612 C 9439,8599 9426,8590 9413,8590 9398,8590 9387,8597 9380,8610 L 9209,8946 8864,8946 C 8777,8788 8753,8636 8792,8499 8838,8345 8988,8180 9213,8180 9274,8180 9337,8193 9400,8215 9558,8274 9643,8341 9645,8341 9658,8352 9676,8352 9689,8341 9689,8341 9773,8274 9934,8215 9997,8191 10060,8180 10120,8180 10344,8180 10496,8345 10541,8499 10578,8625 10559,8764 10489,8909 L 10489,8909 Z"/>
   </g>
  </g>
  <g class="Graphic">
   <g id="id10">
    <rect class="BoundingBox" stroke="none" fill="none" x="5700" y="5900" width="2001" height="2001"/>
    <path fill="rgb(0,0,0)" stroke="none" d="M 7378,6036 L 6020,6036 C 5878,6036 5763,6151 5763,6293 L 5763,7124 C 5763,7266 5878,7381 6019,7382 L 6019,7759 6561,7382 7378,7382 C 7520,7382 7635,7266 7635,7124 L 7635,6293 C 7635,6151 7520,6036 7378,6036 L 7378,6036 Z M 7526,7124 C 7526,7206 7459,7272 7378,7272 L 6527,7272 6129,7549 6129,7272 6020,7272 C 5939,7272 5872,7206 5872,7124 L 5872,6293 C 5872,6212 5939,6145 6020,6145 L 7378,6145 C 7459,6145 7526,6212 7526,6293 L 7526,7124 Z"/>
    <path fill="rgb(0,0,0)" stroke="none" d="M 6264,6423 L 7134,6423 7134,6533 6264,6533 6264,6423 Z"/>
    <path fill="rgb(0,0,0)" stroke="none" d="M 6264,6658 L 7134,6658 7134,6767 6264,6767 6264,6658 Z"/>
    <path fill="rgb(0,0,0)" stroke="none" d="M 6264,6892 L 7134,6892 7134,7001 6264,7001 6264,6892 Z"/>
   </g>
  </g>
  <g class="com.sun.star.drawing.LineShape">
   <g id="id11">
    <rect class="BoundingBox" stroke="none" fill="none" x="11350" y="5325" width="2651" height="351"/>
    <path fill="none" stroke="rgb(28,28,28)" stroke-width="100" stroke-linejoin="round" d="M 11400,5500 L 13498,5500"/>
    <path fill="rgb(28,28,28)" stroke="none" d="M 14000,5500 L 13475,5325 13475,5675 14000,5500 Z"/>
   </g>
  </g>
 </g>
</svg>